<svg width="125" height="24" viewBox="0 0 125 24" fill="none" xmlns="http://www.w3.org/2000/svg">
<path d="M3.612 17H6.216L9.548 6.99H7.42L5.04 14.676L2.66 6.99H0.266L3.612 17ZM10.6317 17H12.6477V9.678H10.6317V17ZM11.6257 8.684C12.2837 8.684 12.7877 8.208 12.7877 7.578C12.7877 6.948 12.2837 6.472 11.6257 6.472C10.9817 6.472 10.4777 6.948 10.4777 7.578C10.4777 8.208 10.9817 8.684 11.6257 8.684ZM17.8872 17.154C19.8892 17.154 21.1492 16.272 21.3872 14.69H19.4692C19.3432 15.306 18.8812 15.712 17.9432 15.712C16.8372 15.712 16.1792 15.012 16.1232 13.794H21.4012V13.234C21.4012 10.616 19.7212 9.51 17.8312 9.51C15.7032 9.51 14.0652 11.008 14.0652 13.318V13.43C14.0652 15.768 15.6752 17.154 17.8872 17.154ZM16.1512 12.548C16.3052 11.512 16.9212 10.91 17.8312 10.91C18.7972 10.91 19.3572 11.442 19.4272 12.548H16.1512ZM24.1473 17H26.1633L27.5073 12.408L28.7533 17H30.7413L33.0513 9.678H31.1053L29.7193 14.606L28.4313 9.678H26.7653L25.3513 14.606L24.0493 9.678H21.9213L24.1473 17ZM41.9532 17.154C44.4172 17.154 46.1952 15.88 46.4472 13.402H44.2212C44.0392 14.69 43.1712 15.32 41.9252 15.32C40.2732 15.32 39.3212 14.116 39.3212 12.044V11.932C39.3212 9.86 40.3292 8.628 41.9112 8.628C43.1712 8.628 43.8432 9.272 44.0112 10.476H46.3352C46.0972 8.012 44.3052 6.836 41.8972 6.836C39.0552 6.836 36.9272 8.908 36.9272 11.946V12.058C36.9272 15.138 38.6772 17.154 41.9532 17.154ZM51.1518 15.614C50.0038 15.614 49.3598 14.774 49.3598 13.374V13.262C49.3598 11.862 50.0318 11.05 51.1518 11.05C52.2858 11.05 52.9438 11.89 52.9438 13.29V13.388C52.9438 14.774 52.2858 15.614 51.1518 15.614ZM51.1378 17.154C53.3358 17.154 55.0018 15.684 55.0018 13.374V13.262C55.0018 10.98 53.3498 9.51 51.1518 9.51C48.9538 9.51 47.2878 11.008 47.2878 13.304V13.416C47.2878 15.698 48.9538 17.154 51.1378 17.154ZM56.3628 17H58.3928V12.772C58.3928 11.694 59.0508 11.162 59.9188 11.162C60.8148 11.162 61.2068 11.638 61.2068 12.632V17H63.2368V12.338C63.2368 10.378 62.2148 9.51 60.7728 9.51C59.5548 9.51 58.7568 10.112 58.3928 10.84V9.678H56.3628V17ZM67.6501 17.14C68.1961 17.14 68.6021 17.042 68.8821 16.944V15.376C68.6441 15.474 68.4201 15.516 68.1121 15.516C67.5941 15.516 67.3001 15.236 67.3001 14.648V11.12H68.8401V9.678H67.3001V8.096H65.2841V9.678H64.3461V11.12H65.2841V14.83C65.2841 16.356 66.1101 17.14 67.6501 17.14ZM70.2534 17H72.2834V13.332C72.2834 11.932 73.1514 11.442 74.6494 11.456V9.566C73.4594 9.58 72.7454 10.098 72.2834 11.078V9.678H70.2534V17ZM77.8192 17.154C78.9672 17.154 79.6112 16.706 80.0312 16.118V17H82.0052V12.226C82.0052 10.238 80.7312 9.51 78.9392 9.51C77.1472 9.51 75.7752 10.28 75.6492 12.016H77.5672C77.6512 11.386 78.0152 10.98 78.8132 10.98C79.7372 10.98 80.0032 11.456 80.0032 12.324V12.618H79.1772C76.9372 12.618 75.3692 13.262 75.3692 14.97C75.3692 16.51 76.4892 17.154 77.8192 17.154ZM78.4212 15.74C77.6792 15.74 77.3572 15.39 77.3572 14.858C77.3572 14.074 78.0432 13.822 79.2192 13.822H80.0032V14.438C80.0032 15.25 79.3172 15.74 78.4212 15.74ZM87.0656 17.154C89.1936 17.154 90.4536 15.95 90.5656 14.214H88.7316C88.6336 15.152 87.9756 15.628 87.1636 15.628C86.0296 15.628 85.3716 14.872 85.3716 13.402V13.29C85.3716 11.89 86.0716 11.106 87.1216 11.106C87.9476 11.106 88.4656 11.498 88.6056 12.352H90.5236C90.3416 10.252 88.7736 9.51 87.0796 9.51C84.9936 9.51 83.2996 10.952 83.2996 13.318V13.43C83.2996 15.824 84.9236 17.154 87.0656 17.154ZM94.5153 17.14C95.0613 17.14 95.4673 17.042 95.7473 16.944V15.376C95.5093 15.474 95.2853 15.516 94.9773 15.516C94.4593 15.516 94.1653 15.236 94.1653 14.648V11.12H95.7053V9.678H94.1653V8.096H92.1493V9.678H91.2113V11.12H92.1493V14.83C92.1493 16.356 92.9753 17.14 94.5153 17.14Z" fill="url(#paint0_linear_8120_96156)"/>
<path d="M0 18.4H96.2233V19.1H0V18.4Z" fill="url(#paint1_linear_8120_96156)"/>
<path d="M117.95 7.05005L108.05 16.95" stroke="url(#paint2_linear_8120_96156)" stroke-width="1.5" stroke-linecap="round" stroke-linejoin="round"/>
<path d="M111 7L117.95 7.049L118 14" stroke="url(#paint3_linear_8120_96156)" stroke-width="1.5" stroke-linecap="round" stroke-linejoin="round"/>
<defs>
<linearGradient id="paint0_linear_8120_96156" x1="1.12614e-08" y1="13.1478" x2="53.3467" y2="62.4423" gradientUnits="userSpaceOnUse">
<stop stop-color="#80E8DD"/>
<stop offset="0.395833" stop-color="#7CC2F6"/>
<stop offset="0.744792" stop-color="#AF81E4"/>
<stop offset="1" stop-color="#D855A6"/>
</linearGradient>
<linearGradient id="paint1_linear_8120_96156" x1="1.12614e-08" y1="13.1478" x2="53.3467" y2="62.4423" gradientUnits="userSpaceOnUse">
<stop stop-color="#80E8DD"/>
<stop offset="0.395833" stop-color="#7CC2F6"/>
<stop offset="0.744792" stop-color="#AF81E4"/>
<stop offset="1" stop-color="#D855A6"/>
</linearGradient>
<linearGradient id="paint2_linear_8120_96156" x1="108.05" y1="12.4735" x2="117.642" y2="14.6666" gradientUnits="userSpaceOnUse">
<stop stop-color="#80E8DD"/>
<stop offset="0.395833" stop-color="#7CC2F6"/>
<stop offset="0.744792" stop-color="#AF81E4"/>
<stop offset="1" stop-color="#D855A6"/>
</linearGradient>
<linearGradient id="paint3_linear_8120_96156" x1="111" y1="10.8348" x2="117.782" y2="12.3854" gradientUnits="userSpaceOnUse">
<stop stop-color="#80E8DD"/>
<stop offset="0.395833" stop-color="#7CC2F6"/>
<stop offset="0.744792" stop-color="#AF81E4"/>
<stop offset="1" stop-color="#D855A6"/>
</linearGradient>
</defs>
</svg>
