<svg width="49" height="48" viewBox="0 0 49 48" fill="none" xmlns="http://www.w3.org/2000/svg">
<path fill-rule="evenodd" clip-rule="evenodd" d="M43.666 12.7462C43.208 10.7382 41.852 9.15423 40.128 8.61023C37.01 7.63623 24.5 7.63623 24.5 7.63623C24.5 7.63623 11.996 7.63623 8.872 8.61023C7.154 9.14623 5.798 10.7302 5.334 12.7462C4.5 16.3902 4.5 24.0002 4.5 24.0002C4.5 24.0002 4.5 31.6102 5.334 35.2542C5.792 37.2622 7.148 38.8462 8.872 39.3902C11.996 40.3642 24.5 40.3642 24.5 40.3642C24.5 40.3642 37.01 40.3642 40.128 39.3902C41.846 38.8542 43.202 37.2702 43.666 35.2542C44.5 31.6102 44.5 24.0002 44.5 24.0002C44.5 24.0002 44.5 16.3902 43.666 12.7462Z" stroke="white" stroke-width="1.5" stroke-linecap="round" stroke-linejoin="round"/>
<path fill-rule="evenodd" clip-rule="evenodd" d="M20.504 30L30.896 24L20.504 18V30Z" stroke="white" stroke-width="1.5" stroke-linecap="round" stroke-linejoin="round"/>
</svg>
