<svg width="49" height="48" viewBox="0 0 49 48" fill="none" xmlns="http://www.w3.org/2000/svg">
<path d="M39.65 18.7002C39.65 18.286 39.3142 17.9502 38.9 17.9502C38.4858 17.9502 38.15 18.286 38.15 18.7002H39.65ZM7.10565 32.6578C6.86134 32.3233 6.39213 32.2502 6.05764 32.4945C5.72314 32.7389 5.65004 33.2081 5.89435 33.5426L7.10565 32.6578ZM6.37257 32.3611C5.96438 32.4315 5.69053 32.8194 5.7609 33.2276C5.83128 33.6358 6.21924 33.9097 6.62743 33.8393L6.37257 32.3611ZM11.9 31.3002L12.1383 32.0113C12.3839 31.929 12.5696 31.7259 12.6296 31.4739C12.6896 31.222 12.6154 30.9569 12.4332 30.7728L11.9 31.3002ZM10.1 9.7002L10.7606 9.34504C10.638 9.11698 10.4064 8.9683 10.148 8.95173C9.88958 8.93517 9.64091 9.05306 9.49018 9.26359L10.1 9.7002ZM20.9 18.7002L20.7229 19.429C20.9422 19.4823 21.1739 19.434 21.3537 19.2974C21.5334 19.1609 21.6421 18.9506 21.6496 18.725L20.9 18.7002ZM37.1 13.3002L36.4738 13.713C36.6126 13.9235 36.8479 14.0502 37.1 14.0502V13.3002ZM42.5 13.3002L43.124 13.7162C43.2775 13.4861 43.2918 13.1902 43.1613 12.9463C43.0307 12.7024 42.7766 12.5502 42.5 12.5502V13.3002ZM38.276 18.2842C38.0462 18.6288 38.1393 19.0945 38.484 19.3242C38.8286 19.554 39.2943 19.4609 39.524 19.1162L38.276 18.2842ZM38.15 18.7002C38.15 24.8622 36.3901 30.0712 33.1626 33.729C29.9454 37.3751 25.2093 39.5502 19.1 39.5502V41.0502C25.5907 41.0502 30.7546 38.7253 34.2874 34.7214C37.8099 30.7292 39.65 25.1382 39.65 18.7002H38.15ZM19.1 39.5502C15.6446 39.5502 13.2767 38.6529 11.476 37.3787C9.65237 36.0883 8.36622 34.3837 7.10565 32.6578L5.89435 33.5426C7.14778 35.2587 8.56163 37.1541 10.6095 38.6032C12.6803 40.0685 15.3554 41.0502 19.1 41.0502V39.5502ZM6.62743 33.8393C6.66566 33.8327 6.69659 33.824 6.69694 33.8239C6.70589 33.8215 6.71343 33.8194 6.71785 33.8181C6.72712 33.8153 6.73634 33.8125 6.74374 33.8102C6.75922 33.8054 6.77871 33.7991 6.80062 33.7921C6.845 33.7777 6.90698 33.7575 6.98315 33.7324C7.13588 33.6821 7.35018 33.6111 7.60484 33.5264C8.11438 33.357 8.78802 33.1322 9.45948 32.9078C10.131 32.6833 10.8007 32.4592 11.3025 32.2912C11.5534 32.2072 11.7623 32.1373 11.9086 32.0883C11.9817 32.0638 12.0391 32.0446 12.0782 32.0315C12.0978 32.0249 12.1128 32.0199 12.1229 32.0165C12.128 32.0148 12.1318 32.0135 12.1344 32.0126C12.1357 32.0122 12.1367 32.0119 12.1373 32.0117C12.1376 32.0116 12.1379 32.0115 12.138 32.0114C12.1381 32.0114 12.1382 32.0114 12.1382 32.0114C12.1383 32.0113 12.1383 32.0113 11.9 31.3002C11.6617 30.5891 11.6617 30.5891 11.6617 30.5891C11.6616 30.5891 11.6616 30.5891 11.6615 30.5891C11.6613 30.5892 11.6611 30.5893 11.6607 30.5894C11.6601 30.5896 11.6591 30.5899 11.6578 30.5903C11.6553 30.5912 11.6515 30.5925 11.6464 30.5942C11.6363 30.5976 11.6213 30.6026 11.6017 30.6091C11.5626 30.6223 11.5052 30.6415 11.4321 30.666C11.286 30.7149 11.0771 30.7849 10.8263 30.8688C10.3247 31.0368 9.65523 31.2608 8.98402 31.4851C8.31273 31.7095 7.64 31.934 7.1316 32.103C6.87729 32.1876 6.66473 32.258 6.51421 32.3076C6.43876 32.3324 6.38003 32.3516 6.33979 32.3646C6.31938 32.3712 6.30559 32.3756 6.29744 32.3781C6.29304 32.3795 6.29287 32.3795 6.29525 32.3788C6.29622 32.3785 6.30094 32.3771 6.3077 32.3753C6.31108 32.3744 6.31738 32.3728 6.32545 32.3708C6.33122 32.3694 6.34915 32.3651 6.37257 32.3611L6.62743 33.8393ZM12.4332 30.7728C6.68341 24.9598 6.25017 16.3658 10.7098 10.1368L9.49018 9.26359C4.61383 16.0746 5.09259 25.4846 11.3668 31.8276L12.4332 30.7728ZM9.43942 10.0553C11.7265 14.3093 16.0132 18.2844 20.7229 19.429L21.0771 17.9714C16.8828 16.952 12.9015 13.3271 10.7606 9.34504L9.43942 10.0553ZM21.6496 18.725C21.7302 16.289 22.5932 14.2249 24.0123 12.7748C25.4273 11.3287 27.4366 10.4502 29.9 10.4502V8.9502C27.0614 8.9502 24.6567 9.97165 22.9402 11.7256C21.2278 13.4755 20.2418 15.9114 20.1504 18.6754L21.6496 18.725ZM29.9 10.4502C31.6082 10.4502 32.9151 10.7751 33.9509 11.3279C34.985 11.8798 35.7952 12.6835 36.4738 13.713L37.7262 12.8874C36.9388 11.6928 35.954 10.6966 34.6571 10.0045C33.3619 9.31329 31.8018 8.9502 29.9 8.9502V10.4502ZM37.1 14.0502H42.5V12.5502H37.1V14.0502ZM41.876 12.8842L38.276 18.2842L39.524 19.1162L43.124 13.7162L41.876 12.8842Z" fill="white"/>
</svg>
