<svg width="49" height="48" viewBox="0 0 49 48" fill="none" xmlns="http://www.w3.org/2000/svg">
<path d="M18.6497 6.71999C18.6497 6.71999 12.5374 7.14047 8.53994 10.3498C8.51906 10.3581 8.49884 10.3681 8.47946 10.3795C7.78634 11.0208 7.26602 12.0163 6.61994 13.44C5.97482 14.8646 5.29226 16.6992 4.67018 18.7498C3.42794 22.8576 2.41994 27.8976 2.41994 32.64C2.41597 32.8079 2.45743 32.9737 2.53994 33.12C3.94154 35.5833 6.52202 37.0723 8.9297 38.0102C11.3374 38.9472 13.5607 39.3225 14.6897 39.36C15.0084 39.3715 15.3127 39.2256 15.4999 38.9702L17.8404 35.7302C19.7259 36.1766 21.9387 36.48 24.4999 36.48C27.0612 36.48 29.274 36.1766 31.1604 35.7302L33.4999 38.9702C33.6871 39.2246 33.9915 39.3715 34.3102 39.36C35.4391 39.3216 37.6625 38.9472 40.0702 38.0102C42.4779 37.0723 45.0574 35.5833 46.4599 33.12C46.5424 32.9737 46.5839 32.8079 46.5799 32.64C46.5799 27.8966 45.5719 22.8566 44.3297 18.7498C43.7076 16.6992 43.0241 14.8646 42.3799 13.44C41.7348 12.0154 41.2135 11.0208 40.5195 10.3795C40.5004 10.3685 40.4805 10.3588 40.4599 10.3507C36.4625 7.13855 30.3502 6.71999 30.3502 6.71999C30.2803 6.71248 30.2098 6.71248 30.1399 6.71999C29.9765 6.7426 29.8216 6.80695 29.6903 6.90683C29.559 7.00672 29.4556 7.13876 29.3902 7.29023C29.3902 7.29023 29.0638 8.00639 28.8497 9.02975C26.9787 8.73023 25.4033 8.63999 24.4999 8.63999C23.5966 8.63999 22.0212 8.73023 20.1502 9.02975C19.9361 8.00639 19.6097 7.29023 19.6097 7.29023C19.5289 7.10712 19.393 6.95378 19.2209 6.85156C19.0488 6.74935 18.8492 6.70336 18.6497 6.71999ZM18.0497 8.78975C18.1207 8.98463 18.1697 9.16895 18.2302 9.38975C16.0663 9.89279 13.6961 10.7146 11.4795 12.0902C11.3089 12.1622 11.1628 12.2818 11.0584 12.4347C10.9541 12.5876 10.8959 12.7673 10.891 12.9523C10.8833 13.3267 11.0974 13.6762 11.4353 13.8413C11.7761 14.0026 12.1812 13.9536 12.4702 13.7098C16.9179 10.9546 22.5761 10.56 24.4999 10.56C26.4238 10.56 32.082 10.9536 36.5297 13.7098C36.8187 13.9536 37.2238 14.0026 37.5646 13.8413C37.9025 13.6762 38.1166 13.3277 38.1089 12.9523C38.1039 12.7672 38.0456 12.5874 37.9411 12.4345C37.8365 12.2816 37.6901 12.1621 37.5195 12.0902C35.3038 10.7136 32.9335 9.89183 30.7707 9.38975C30.8302 9.16895 30.8791 8.98463 30.9502 8.78975C32.0446 8.92415 36.3012 9.49919 39.1995 11.7898C39.3876 11.9626 40.0404 12.9226 40.6395 14.2502C41.2404 15.5779 41.8702 17.3059 42.4702 19.2902C43.6395 23.16 44.5851 27.9341 44.6302 32.3097C43.5387 34.0761 41.491 35.3885 39.3799 36.2102C37.4599 36.9562 35.6676 37.2902 34.7297 37.3795L33.1102 35.1907C33.8635 34.9474 34.6043 34.6667 35.3297 34.3497C37.7527 33.2841 39.0497 32.16 39.0497 32.16C39.2333 31.9871 39.3421 31.7493 39.3529 31.4974C39.3636 31.2454 39.2755 30.9992 39.1072 30.8113C38.939 30.6234 38.704 30.5087 38.4524 30.4916C38.2008 30.4746 37.9525 30.5565 37.7604 30.72C37.7604 30.72 36.7553 31.6387 34.5502 32.6102C33.7399 32.9654 32.7579 33.3187 31.6395 33.6297C31.3812 33.6 31.122 33.6749 30.9195 33.84C29.131 34.2749 27.0046 34.56 24.4999 34.56C21.9761 34.56 19.8459 34.249 18.0497 33.8102C17.8476 33.674 17.601 33.62 17.3604 33.6595C16.3664 33.3795 15.3937 33.0289 14.4497 32.6102C12.2446 31.6387 11.2395 30.72 11.2395 30.72C11.1319 30.6207 11.003 30.5475 10.8627 30.5058C10.7224 30.4642 10.5744 30.4554 10.4302 30.48C10.3079 30.3762 10.1616 30.3048 10.0045 30.2722C9.84753 30.2397 9.68485 30.247 9.53139 30.2935C9.37794 30.3401 9.2386 30.4243 9.12613 30.5386C9.01366 30.653 8.93164 30.7936 8.88759 30.9478C8.84353 31.102 8.83885 31.2648 8.87395 31.4213C8.90906 31.5777 8.98284 31.7229 9.08855 31.8435C9.19426 31.9641 9.32851 32.0562 9.47904 32.1115C9.62956 32.1668 9.79155 32.1835 9.95018 32.16C9.95018 32.16 11.2471 33.2851 13.6702 34.3497C14.323 34.6349 15.0651 34.9238 15.8897 35.1897L14.2702 37.3805C13.3323 37.2902 11.5399 36.9561 9.61994 36.2093C7.50794 35.3885 5.46122 34.0761 4.3697 32.3097C4.41482 27.9341 5.36042 23.16 6.5297 19.2902C7.1297 17.3059 7.76042 15.5779 8.36042 14.2502C8.95946 12.9226 9.61226 11.9626 9.80042 11.7898C12.6987 9.49919 16.9553 8.92511 18.0497 8.78975ZM18.2599 20.16C15.8119 20.16 13.9399 22.3834 13.9399 24.96C13.9399 27.5366 15.8119 29.76 18.2599 29.76C20.7079 29.76 22.5799 27.5366 22.5799 24.96C22.5799 22.3834 20.7079 20.16 18.2599 20.16ZM30.7399 20.16C28.2919 20.16 26.4199 22.3834 26.4199 24.96C26.4199 27.5366 28.2919 29.76 30.7399 29.76C33.1879 29.76 35.0599 27.5366 35.0599 24.96C35.0599 22.3834 33.1879 20.16 30.7399 20.16ZM18.2599 22.08C19.5233 22.08 20.6599 23.2954 20.6599 24.96C20.6599 26.6246 19.5233 27.84 18.2599 27.84C16.9966 27.84 15.8599 26.6246 15.8599 24.96C15.8599 23.2954 16.9966 22.08 18.2599 22.08ZM30.7399 22.08C32.0033 22.08 33.1399 23.2954 33.1399 24.96C33.1399 26.6246 32.0033 27.84 30.7399 27.84C29.4766 27.84 28.3399 26.6246 28.3399 24.96C28.3399 23.2954 29.4766 22.08 30.7399 22.08Z" fill="white" stroke="white" stroke-width="0.25"/>
</svg>
