<svg width="24" height="24" viewBox="0 0 24 24" fill="none" xmlns="http://www.w3.org/2000/svg">
<path d="M7 17H5C4.46957 17 3.96086 16.7893 3.58579 16.4142C3.21071 16.0391 3 15.5304 3 15V5C3 4.46957 3.21071 3.96086 3.58579 3.58579C3.96086 3.21071 4.46957 3 5 3H15C15.5304 3 16.0391 3.21071 16.4142 3.58579C16.7893 3.96086 17 4.46957 17 5V7" stroke="url(#paint0_linear_8471_16639)" stroke-width="1.5" stroke-linecap="round" stroke-linejoin="round"/>
<path d="M19.895 7H8.105C7.49472 7 7 7.49472 7 8.105V19.895C7 20.5053 7.49472 21 8.105 21H19.895C20.5053 21 21 20.5053 21 19.895V8.105C21 7.49472 20.5053 7 19.895 7Z" stroke="url(#paint1_linear_8471_16639)" stroke-width="1.5" stroke-linecap="round" stroke-linejoin="round"/>
<defs>
<linearGradient id="paint0_linear_8471_16639" x1="3" y1="10.6696" x2="16.5647" y2="13.7708" gradientUnits="userSpaceOnUse">
<stop stop-color="#80E8DD"/>
<stop offset="0.395833" stop-color="#7CC2F6"/>
<stop offset="0.744792" stop-color="#AF81E4"/>
<stop offset="1" stop-color="#D855A6"/>
</linearGradient>
<linearGradient id="paint1_linear_8471_16639" x1="7" y1="14.6696" x2="20.5647" y2="17.7708" gradientUnits="userSpaceOnUse">
<stop stop-color="#80E8DD"/>
<stop offset="0.395833" stop-color="#7CC2F6"/>
<stop offset="0.744792" stop-color="#AF81E4"/>
<stop offset="1" stop-color="#D855A6"/>
</linearGradient>
</defs>
</svg>
