<svg width="133" height="25" viewBox="0 0 133 25" fill="none" xmlns="http://www.w3.org/2000/svg">
<path d="M11.039 24H19.879L28.107 7.51L36.301 24H45.141L55.477 0.811999H47.691L40.687 17.71L32.187 0.811999H23.959L15.663 17.71L8.489 0.811999H0.703L11.039 24ZM62.0385 12.44C62.0385 8.292 64.1125 6.388 72.8505 6.388C78.1885 6.388 83.7305 7.34 87.7085 8.122L88.9325 2.376C84.2065 1.288 78.2225 0.471999 72.6125 0.471999C59.8965 0.471999 55.1365 4.654 55.1365 12.44C55.1365 20.226 59.8965 24.442 72.6125 24.442C78.2225 24.442 84.2065 23.626 88.9325 22.538L87.7085 16.792C83.7305 17.574 78.1885 18.526 72.8505 18.526C64.1125 18.526 62.0385 16.622 62.0385 12.44ZM98.4782 24V16.418H121.87V10.978H98.4782V6.728H122.516V0.811999H91.5762V24H98.4782ZM132.179 24V0.811999H125.277V24H132.179Z" fill="white"/>
</svg>
